Coordinates
version=1
nRows=9
nColumns=36
inDegrees=yes

Units are S.I. units (second, meters, Newtons, ...)
If the header above contains a line with 'inDegrees', this indicates whether rotational values are in degrees (yes) or radians (no).

endheader
time	pelvis_tilt	pelvis_list	pelvis_rotation	pelvis_tx	pelvis_ty	pelvis_tz	hip_flexion_r	hip_adduction_r	hip_rotation_r	knee_angle_r	knee_angle_r_beta	ankle_angle_r	subtalar_angle_r	mtp_angle_r	hip_flexion_l	hip_adduction_l	hip_rotation_l	knee_angle_l	knee_angle_l_beta	ankle_angle_l	subtalar_angle_l	mtp_angle_l	lumbar_extension	lumbar_bending	lumbar_rotation	arm_flex_r	arm_add_r	arm_rot_r	elbow_flex_r	pro_sup_r	arm_flex_l	arm_add_l	arm_rot_l	elbow_flex_l	pro_sup_l
      0.00000000	      4.42069425	      1.65556038	     10.59891979	      0.03210899	      1.30388351	      0.08960604	     -5.25320071	     -5.03213236	      3.01745513	      5.21118602	      0.09095235	     -0.00118816	    -12.88265516	     -6.32309532	     -1.53293882	      0.14625881	      2.54754108	     14.00161523	      0.24437429	     10.49911638	    -10.21166988	     -6.32309532	    -14.12116061	     -0.93410013	     -0.45154708	      7.97207938	     -3.93319725	     14.29204115	     26.03789598	     81.32487547	      7.33576880	     -5.94042982	      2.99053814	     31.28894088	     80.30716600
      0.01666670	      2.40144182	      0.68337883	      9.57212585	      0.03464559	      1.29837057	      0.09018736	     -2.53982512	     -4.53067189	      4.85428311	      5.92450788	      0.10340217	      1.71557244	    -11.26141413	     -6.49501568	      0.89486055	      0.02495963	      3.30888290	     14.56245995	      0.25416287	     10.73770882	    -10.75904241	     -6.49501568	    -10.78111895	     -0.25746482	      0.63218639	      7.15278159	     -4.04874856	     12.21056917	     25.29587425	     79.50005962	      6.72912535	     -4.70766625	     -1.23602893	     30.49181455	     77.76321476
      0.03333330	      1.40097772	      0.92802630	      8.70490346	      0.03624217	      1.29985361	      0.09168656	     -1.68067018	     -5.04212180	      5.22551018	      5.48043551	      0.09565164	      2.05875152	    -11.38426151	     -6.70570347	      1.79351127	      0.49491761	      2.76631086	     14.40510025	      0.25141643	     10.47629580	    -11.28834297	     -6.70570347	     -9.71324726	     -1.05027740	      0.82791184	      7.08275808	     -3.58184490	     10.93439643	     25.91979091	     81.25074011	      5.67448718	     -4.79407062	     -2.82375159	     31.67426193	     77.70483231
      0.05000000	      1.39794712	      1.29278997	      8.18871224	      0.03631161	      1.29741964	      0.09255435	     -1.64631898	     -5.48048034	      5.37048273	      5.32845255	      0.09299904	      2.53833693	    -11.17466425	     -6.78599441	      1.37859809	      0.96573296	      2.94461946	     13.87172862	      0.24210734	     10.20864536	    -12.53169496	     -6.78599441	     -9.81794504	     -1.66391850	      1.37203734	      7.16855697	     -3.74194282	     11.82262596	     26.28468757	     81.18210944	      5.55282301	     -5.42277654	     -1.56370133	     32.25718939	     77.65433568
      0.06666670	      1.36400638	      1.51029728	      7.77656363	      0.03660014	      1.29746593	      0.09331259	     -1.60541669	     -5.70792948	      5.46488802	      5.18430909	      0.09048326	      2.51433841	    -11.26498820	     -6.83902315	      1.12814878	      1.22999720	      2.92227513	     13.51100417	      0.23581151	     10.43464598	    -12.96345900	     -6.83902315	     -9.91216139	     -2.00852680	      1.72725079	      7.16271539	     -3.76903170	     12.61629397	     26.73009619	     80.45733584	      5.73950636	     -5.65984301	     -0.97075050	     32.41479914	     77.05272720
      0.08333330	      1.48153082	      1.65060805	      7.47453203	      0.03661392	      1.29820349	      0.09373266	     -1.60443028	     -5.77570610	      5.62490783	      5.12663322	      0.08947663	      2.29137244	    -11.64203772	     -6.88040126	      0.83362779	      1.41960222	      3.04750461	     13.42434732	      0.23429906	     10.59905475	    -13.45159551	     -6.88040126	    -10.14918906	     -2.14216866	      1.99484495	      7.33180404	     -3.94288305	     13.62634028	     26.92861095	     79.95090615	      6.18753427	     -5.87747725	     -0.26611879	     32.20702816	     76.69079604
      0.10000000	      1.53081520	      1.68938698	      7.31732756	      0.03668665	      1.29833411	      0.09412332	     -1.56584784	     -5.75292744	      5.79290618	      5.09557077	      0.08893449	      2.01874796	    -12.06196177	     -6.93590809	      0.72770036	      1.49067903	      3.25658682	     13.41633126	      0.23415915	     10.62492438	    -14.07674565	     -6.93590809	    -10.22687140	     -2.23625012	      2.18660643	      7.38122217	     -4.04654815	     14.97048197	     27.07165981	     79.06618047	      6.60959865	     -5.96633433	      0.60387296	     31.82816700	     76.02847933
      0.11666670	      1.23794879	      1.67103894	      7.19657219	      0.03687303	      1.29826915	      0.09422973	     -1.13083992	     -5.71669588	      6.07705929	      5.15021750	      0.08988825	      1.52312359	    -12.82327364	     -6.99291021	      1.06521376	      1.56223186	      3.51172474	     13.50727596	      0.23574644	     10.39253843	    -14.82881477	     -6.99291021	     -9.71558268	     -2.24030458	      2.39248545	      7.51782855	     -4.43194718	     17.94696820	     26.72792037	     78.99046076	      7.17014286	     -6.20259208	      2.66895805	     30.57723922	     76.48772887
      0.13333330	      1.39828822	      1.77008891	      7.17600652	      0.04338924	      1.29822267	      0.09151274	     -1.55795547	     -5.79682981	      5.95699659	      5.03542040	      0.08788467	      1.36086771	    -12.90165160	     -7.00926748	      0.64466337	      1.67947748	      3.63906415	     13.31493293	      0.23238942	     10.30878343	    -15.00682542	     -7.00926748	     -9.71787258	     -2.26577895	      2.36493435	      7.34993153	     -4.49206436	     18.60735145	     26.68857501	     79.00823015	      7.26470906	     -6.09794846	      2.98276226	     30.04157147	     76.78455420
